<?xml version="1.0" encoding="utf-8"?>
<!-- Generator: Adobe Illustrator 25.3.1, SVG Export Plug-In . SVG Version: 6.00 Build 0)  -->
<svg version="1.1" id="Calque_1" xmlns="http://www.w3.org/2000/svg" xmlns:xlink="http://www.w3.org/1999/xlink" x="0px" y="0px"
	 viewBox="0 0 104.5 125" style="enable-background:new 0 0 104.5 125;" xml:space="preserve">
<style type="text/css">
	.st0{opacity:0.6;fill:#FFFFFF;}
	.st1{fill:#323864;}
</style>
<polyline class="st0" points="0,125 0,0 104.5,0 "/>
<path class="st1" d="M38.1,27.9v-5.9c0-4.9-4-8.9-8.9-8.9s-8.9,4-8.9,8.9v6h-4.5v20.8h26.7V27.9H38.1z M30.7,39.3v3.4h-3v-3.4
	c-0.9-0.5-1.5-1.5-1.5-2.6c0-1.6,1.3-3,3-3c1.6,0,3,1.3,3,3C32.2,37.9,31.6,38.8,30.7,39.3z M23.3,27.9v-5.9c0-3.3,2.6-6,6-6
	c3.3,0,6,2.6,6,6v6L23.3,27.9L23.3,27.9z"/>
</svg>
